<?xml version="1.0" encoding="us-ascii" standalone="no"?><svg xmlns="http://www.w3.org/2000/svg" xmlns:xlink="http://www.w3.org/1999/xlink" contentStyleType="text/css" height="431px" preserveAspectRatio="none" style="width:585px;height:431px;background:#FFFFFF;" version="1.1" viewBox="0 0 585 431" width="585px" zoomAndPan="magnify"><defs/><g><rect fill="#FFFFFF" height="320.1953" style="stroke:#181818;stroke-width:1.0;" width="10" x="98" y="67.4297"/><rect fill="#FFFFFF" height="28" style="stroke:#181818;stroke-width:1.0;" width="10" x="103" y="343.625"/><rect fill="#FFFFFF" height="291.0625" style="stroke:#181818;stroke-width:1.0;" width="10" x="281" y="96.5625"/><rect fill="#FFFFFF" height="29.1328" style="stroke:#181818;stroke-width:1.0;" width="10" x="384" y="205.0938"/><rect fill="#FFFFFF" height="29.1328" style="stroke:#181818;stroke-width:1.0;" width="10" x="508" y="263.3594"/><rect fill="none" height="195.9297" style="stroke:#000000;stroke-width:1.5;" width="541" x="38.5" y="111.5625"/><rect fill="none" height="164.7969" style="stroke:#000000;stroke-width:1.5;" width="521" x="48.5" y="135.6953"/><line style="stroke:#181818;stroke-width:0.5;stroke-dasharray:5.0,5.0;" x1="102.5" x2="102.5" y1="36.2969" y2="396.625"/><line style="stroke:#181818;stroke-width:0.5;stroke-dasharray:5.0,5.0;" x1="285.5" x2="285.5" y1="36.2969" y2="396.625"/><line style="stroke:#181818;stroke-width:0.5;stroke-dasharray:5.0,5.0;" x1="388.5" x2="388.5" y1="36.2969" y2="396.625"/><line style="stroke:#181818;stroke-width:0.5;stroke-dasharray:5.0,5.0;" x1="512.5" x2="512.5" y1="36.2969" y2="396.625"/><rect fill="#E2E2F0" height="30.2969" rx="2.5" ry="2.5" style="stroke:#181818;stroke-width:0.5;" width="89" x="58.5" y="5"/><text fill="#000000" font-family="sans-serif" font-size="14" lengthAdjust="spacing" textLength="75" x="65.5" y="24.9951">MuxServer</text><rect fill="#E2E2F0" height="30.2969" rx="2.5" ry="2.5" style="stroke:#181818;stroke-width:0.5;" width="89" x="58.5" y="395.625"/><text fill="#000000" font-family="sans-serif" font-size="14" lengthAdjust="spacing" textLength="75" x="65.5" y="415.6201">MuxServer</text><rect fill="#E2E2F0" height="30.2969" rx="2.5" ry="2.5" style="stroke:#181818;stroke-width:0.5;" width="51" x="260.5" y="5"/><text fill="#000000" font-family="sans-serif" font-size="14" lengthAdjust="spacing" textLength="37" x="267.5" y="24.9951">Conn</text><rect fill="#E2E2F0" height="30.2969" rx="2.5" ry="2.5" style="stroke:#181818;stroke-width:0.5;" width="51" x="260.5" y="395.625"/><text fill="#000000" font-family="sans-serif" font-size="14" lengthAdjust="spacing" textLength="37" x="267.5" y="415.6201">Conn</text><rect fill="#E2E2F0" height="30.2969" rx="2.5" ry="2.5" style="stroke:#181818;stroke-width:0.5;" width="135" x="321.5" y="5"/><text fill="#000000" font-family="sans-serif" font-size="14" lengthAdjust="spacing" textLength="121" x="328.5" y="24.9951">ConcurrencyPool</text><rect fill="#E2E2F0" height="30.2969" rx="2.5" ry="2.5" style="stroke:#181818;stroke-width:0.5;" width="135" x="321.5" y="395.625"/><text fill="#000000" font-family="sans-serif" font-size="14" lengthAdjust="spacing" textLength="121" x="328.5" y="415.6201">ConcurrencyPool</text><rect fill="#E2E2F0" height="30.2969" rx="2.5" ry="2.5" style="stroke:#181818;stroke-width:0.5;" width="93" x="466.5" y="5"/><text fill="#000000" font-family="sans-serif" font-size="14" lengthAdjust="spacing" textLength="79" x="473.5" y="24.9951">Dispatcher</text><rect fill="#E2E2F0" height="30.2969" rx="2.5" ry="2.5" style="stroke:#181818;stroke-width:0.5;" width="93" x="466.5" y="395.625"/><text fill="#000000" font-family="sans-serif" font-size="14" lengthAdjust="spacing" textLength="79" x="473.5" y="415.6201">Dispatcher</text><rect fill="#FFFFFF" height="320.1953" style="stroke:#181818;stroke-width:1.0;" width="10" x="98" y="67.4297"/><rect fill="#FFFFFF" height="28" style="stroke:#181818;stroke-width:1.0;" width="10" x="103" y="343.625"/><rect fill="#FFFFFF" height="291.0625" style="stroke:#181818;stroke-width:1.0;" width="10" x="281" y="96.5625"/><rect fill="#FFFFFF" height="29.1328" style="stroke:#181818;stroke-width:1.0;" width="10" x="384" y="205.0938"/><rect fill="#FFFFFF" height="29.1328" style="stroke:#181818;stroke-width:1.0;" width="10" x="508" y="263.3594"/><polygon fill="#181818" points="86,63.4297,96,67.4297,86,71.4297,90,67.4297" style="stroke:#181818;stroke-width:1.0;"/><line style="stroke:#181818;stroke-width:1.0;" x1="0" x2="92" y1="67.4297" y2="67.4297"/><text fill="#000000" font-family="sans-serif" font-size="13" lengthAdjust="spacing" textLength="79" x="7" y="62.3638">serveConn()</text><polygon fill="#181818" points="269,92.5625,279,96.5625,269,100.5625,273,96.5625" style="stroke:#181818;stroke-width:1.0;"/><line style="stroke:#181818;stroke-width:1.0;" x1="108" x2="275" y1="96.5625" y2="96.5625"/><text fill="#000000" font-family="sans-serif" font-size="13" lengthAdjust="spacing" textLength="100" x="115" y="91.4966">HandleMessage</text><path d="M38.5,111.5625 L116.5,111.5625 L116.5,118.6953 L106.5,128.6953 L38.5,128.6953 L38.5,111.5625 " fill="#EEEEEE" style="stroke:#000000;stroke-width:1.5;"/><rect fill="none" height="195.9297" style="stroke:#000000;stroke-width:1.5;" width="541" x="38.5" y="111.5625"/><text fill="#000000" font-family="sans-serif" font-size="13" font-weight="bold" lengthAdjust="spacing" textLength="33" x="53.5" y="124.6294">loop</text><path d="M48.5,135.6953 L114.5,135.6953 L114.5,142.8281 L104.5,152.8281 L48.5,152.8281 L48.5,135.6953 " fill="#EEEEEE" style="stroke:#000000;stroke-width:1.5;"/><rect fill="none" height="164.7969" style="stroke:#000000;stroke-width:1.5;" width="521" x="48.5" y="135.6953"/><text fill="#000000" font-family="sans-serif" font-size="13" font-weight="bold" lengthAdjust="spacing" textLength="21" x="63.5" y="148.7622">alt</text><text fill="#000000" font-family="sans-serif" font-size="11" font-weight="bold" lengthAdjust="spacing" textLength="117" x="129.5" y="147.9058">[Conn.ctx.Done()]</text><polygon fill="#181818" points="119,169.9609,109,173.9609,119,177.9609,115,173.9609" style="stroke:#181818;stroke-width:1.0;"/><line style="stroke:#181818;stroke-width:1.0;" x1="113" x2="280" y1="173.9609" y2="173.9609"/><text fill="#000000" font-family="sans-serif" font-size="13" lengthAdjust="spacing" textLength="57" x="125" y="168.895">return nil</text><line style="stroke:#000000;stroke-width:1.0;stroke-dasharray:2.0,2.0;" x1="48.5" x2="569.5" y1="182.9609" y2="182.9609"/><polygon fill="#181818" points="372,201.0938,382,205.0938,372,209.0938,376,205.0938" style="stroke:#181818;stroke-width:1.0;"/><line style="stroke:#181818;stroke-width:1.0;" x1="108" x2="378" y1="205.0938" y2="205.0938"/><text fill="#000000" font-family="sans-serif" font-size="13" lengthAdjust="spacing" textLength="89" x="115" y="200.0278">BorrowOrWait</text><polygon fill="#181818" points="119,230.2266,109,234.2266,119,238.2266,115,234.2266" style="stroke:#181818;stroke-width:1.0;"/><line style="stroke:#181818;stroke-width:1.0;stroke-dasharray:2.0,2.0;" x1="113" x2="388" y1="234.2266" y2="234.2266"/><text fill="#000000" font-family="sans-serif" font-size="13" lengthAdjust="spacing" textLength="61" x="125" y="229.1606">get token</text><polygon fill="#181818" points="496,259.3594,506,263.3594,496,267.3594,500,263.3594" style="stroke:#181818;stroke-width:1.0;"/><line style="stroke:#181818;stroke-width:1.0;" x1="108" x2="502" y1="263.3594" y2="263.3594"/><text fill="#000000" font-family="sans-serif" font-size="13" lengthAdjust="spacing" textLength="56" x="115" y="258.2935">Dispatch</text><polygon fill="#181818" points="119,288.4922,109,292.4922,119,296.4922,115,292.4922" style="stroke:#181818;stroke-width:1.0;"/><line style="stroke:#181818;stroke-width:1.0;" x1="113" x2="512" y1="292.4922" y2="292.4922"/><text fill="#000000" font-family="sans-serif" font-size="13" lengthAdjust="spacing" textLength="39" x="125" y="287.4263">return</text><line style="stroke:#181818;stroke-width:1.0;" x1="113" x2="155" y1="335.625" y2="335.625"/><line style="stroke:#181818;stroke-width:1.0;" x1="155" x2="155" y1="335.625" y2="348.625"/><line style="stroke:#181818;stroke-width:1.0;" x1="114" x2="155" y1="348.625" y2="348.625"/><polygon fill="#181818" points="124,344.625,114,348.625,124,352.625,120,348.625" style="stroke:#181818;stroke-width:1.0;"/><text fill="#000000" font-family="sans-serif" font-size="13" lengthAdjust="spacing" textLength="159" x="120" y="330.5591">log init error if necessary</text><!--SRC=[XL6x3i8m3Dpv2eyWL3w0WG4OM11830nCKMfAH6GZn-Nnzv2sz055t1GdTpvVV4XciCxlEvGh2ep7C8KGpmic6eu6KA6XlFZnhQIk3AKUrnY2oR0cHtZcI-SYmdWjn1EhzycI2LiERHG6dS6c8AYv493pNnBq0NlxV4vjSn4a-zWo-pB0d4Nujf6zSThRehBDK47vZFJVP-d2nQWzlR_pNVSgM-HEtYIf8t_7fNJmg-vCyh5NpnauSWhuoYpWZa1eu-haKUXJD5RTrIWsoYS0]--></g></svg>