<?xml version="1.0" encoding="us-ascii" standalone="no"?><svg xmlns="http://www.w3.org/2000/svg" xmlns:xlink="http://www.w3.org/1999/xlink" contentStyleType="text/css" height="498px" preserveAspectRatio="none" style="width:452px;height:498px;background:#FFFFFF;" version="1.1" viewBox="0 0 452 498" width="452px" zoomAndPan="magnify"><defs/><g><rect fill="#FFFFFF" height="378.1953" style="stroke:#181818;stroke-width:1.0;" width="10" x="126" y="67.4297"/><rect fill="#FFFFFF" height="319.9297" style="stroke:#181818;stroke-width:1.0;" width="10" x="204" y="96.5625"/><rect fill="#FFFFFF" height="189.5313" style="stroke:#181818;stroke-width:1.0;" width="10" x="209" y="133.6953"/><rect fill="#FFFFFF" height="99.2656" style="stroke:#181818;stroke-width:1.0;" width="10" x="214" y="199.9609"/><rect fill="#FFFFFF" height="28" style="stroke:#181818;stroke-width:1.0;" width="10" x="209" y="352.3594"/><rect fill="#FFFFFF" height="220.5313" style="stroke:#181818;stroke-width:1.0;" width="10" x="342" y="234.0938"/><rect fill="#FFFFFF" height="183.3984" style="stroke:#181818;stroke-width:1.0;" width="10" x="347" y="271.2266"/><rect fill="none" height="162.5313" style="stroke:#000000;stroke-width:1.5;" width="274.5" x="170.5" y="153.6953"/><line style="stroke:#181818;stroke-width:0.5;stroke-dasharray:5.0,5.0;" x1="48" x2="48" y1="36.2969" y2="463.625"/><line style="stroke:#181818;stroke-width:0.5;stroke-dasharray:5.0,5.0;" x1="131" x2="131" y1="36.2969" y2="463.625"/><line style="stroke:#181818;stroke-width:0.5;stroke-dasharray:5.0,5.0;" x1="208.5" x2="208.5" y1="36.2969" y2="463.625"/><line style="stroke:#181818;stroke-width:0.5;stroke-dasharray:5.0,5.0;" x1="346.5" x2="346.5" y1="36.2969" y2="463.625"/><rect fill="#E2E2F0" height="30.2969" rx="2.5" ry="2.5" style="stroke:#181818;stroke-width:0.5;" width="87" x="5" y="5"/><text fill="#000000" font-family="sans-serif" font-size="14" lengthAdjust="spacing" textLength="73" x="12" y="24.9951">Controller</text><rect fill="#E2E2F0" height="30.2969" rx="2.5" ry="2.5" style="stroke:#181818;stroke-width:0.5;" width="87" x="5" y="462.625"/><text fill="#000000" font-family="sans-serif" font-size="14" lengthAdjust="spacing" textLength="73" x="12" y="482.6201">Controller</text><rect fill="#E2E2F0" height="30.2969" rx="2.5" ry="2.5" style="stroke:#181818;stroke-width:0.5;" width="58" x="102" y="5"/><text fill="#000000" font-family="sans-serif" font-size="14" lengthAdjust="spacing" textLength="44" x="109" y="24.9951">Agent</text><rect fill="#E2E2F0" height="30.2969" rx="2.5" ry="2.5" style="stroke:#181818;stroke-width:0.5;" width="58" x="102" y="462.625"/><text fill="#000000" font-family="sans-serif" font-size="14" lengthAdjust="spacing" textLength="44" x="109" y="482.6201">Agent</text><rect fill="#E2E2F0" height="30.2969" rx="2.5" ry="2.5" style="stroke:#181818;stroke-width:0.5;" width="57" x="180.5" y="5"/><text fill="#000000" font-family="sans-serif" font-size="14" lengthAdjust="spacing" textLength="43" x="187.5" y="24.9951">Client</text><rect fill="#E2E2F0" height="30.2969" rx="2.5" ry="2.5" style="stroke:#181818;stroke-width:0.5;" width="57" x="180.5" y="462.625"/><text fill="#000000" font-family="sans-serif" font-size="14" lengthAdjust="spacing" textLength="43" x="187.5" y="482.6201">Client</text><rect fill="#E2E2F0" height="30.2969" rx="2.5" ry="2.5" style="stroke:#181818;stroke-width:0.5;" width="89" x="302.5" y="5"/><text fill="#000000" font-family="sans-serif" font-size="14" lengthAdjust="spacing" textLength="75" x="309.5" y="24.9951">MuxServer</text><rect fill="#E2E2F0" height="30.2969" rx="2.5" ry="2.5" style="stroke:#181818;stroke-width:0.5;" width="89" x="302.5" y="462.625"/><text fill="#000000" font-family="sans-serif" font-size="14" lengthAdjust="spacing" textLength="75" x="309.5" y="482.6201">MuxServer</text><rect fill="#FFFFFF" height="378.1953" style="stroke:#181818;stroke-width:1.0;" width="10" x="126" y="67.4297"/><rect fill="#FFFFFF" height="319.9297" style="stroke:#181818;stroke-width:1.0;" width="10" x="204" y="96.5625"/><rect fill="#FFFFFF" height="189.5313" style="stroke:#181818;stroke-width:1.0;" width="10" x="209" y="133.6953"/><rect fill="#FFFFFF" height="99.2656" style="stroke:#181818;stroke-width:1.0;" width="10" x="214" y="199.9609"/><rect fill="#FFFFFF" height="28" style="stroke:#181818;stroke-width:1.0;" width="10" x="209" y="352.3594"/><rect fill="#FFFFFF" height="220.5313" style="stroke:#181818;stroke-width:1.0;" width="10" x="342" y="234.0938"/><rect fill="#FFFFFF" height="183.3984" style="stroke:#181818;stroke-width:1.0;" width="10" x="347" y="271.2266"/><polygon fill="#181818" points="114,63.4297,124,67.4297,114,71.4297,118,67.4297" style="stroke:#181818;stroke-width:1.0;"/><line style="stroke:#181818;stroke-width:1.0;" x1="48.5" x2="120" y1="67.4297" y2="67.4297"/><text fill="#000000" font-family="sans-serif" font-size="13" lengthAdjust="spacing" textLength="53" x="55.5" y="62.3638">Register</text><polygon fill="#181818" points="192,92.5625,202,96.5625,192,100.5625,196,96.5625" style="stroke:#181818;stroke-width:1.0;"/><line style="stroke:#181818;stroke-width:1.0;" x1="136" x2="198" y1="96.5625" y2="96.5625"/><text fill="#000000" font-family="sans-serif" font-size="13" lengthAdjust="spacing" textLength="49" x="143" y="91.4966">register</text><line style="stroke:#181818;stroke-width:1.0;" x1="214" x2="261" y1="120.6953" y2="120.6953"/><line style="stroke:#181818;stroke-width:1.0;" x1="261" x2="261" y1="120.6953" y2="133.6953"/><line style="stroke:#181818;stroke-width:1.0;" x1="220" x2="261" y1="133.6953" y2="133.6953"/><polygon fill="#181818" points="230,129.6953,220,133.6953,230,137.6953,226,133.6953" style="stroke:#181818;stroke-width:1.0;"/><text fill="#000000" font-family="sans-serif" font-size="13" lengthAdjust="spacing" textLength="91" x="226" y="115.6294">initConnection</text><path d="M170.5,153.6953 L236.5,153.6953 L236.5,160.8281 L226.5,170.8281 L170.5,170.8281 L170.5,153.6953 " fill="#EEEEEE" style="stroke:#000000;stroke-width:1.5;"/><rect fill="none" height="162.5313" style="stroke:#000000;stroke-width:1.5;" width="274.5" x="170.5" y="153.6953"/><text fill="#000000" font-family="sans-serif" font-size="13" font-weight="bold" lengthAdjust="spacing" textLength="21" x="185.5" y="166.7622">alt</text><a href="new" target="_top" title="new" xlink:actuate="onRequest" xlink:href="new" xlink:show="new" xlink:title="new" xlink:type="simple"><text fill="#0000FF" font-family="sans-serif" font-size="11" font-weight="bold" lengthAdjust="spacing" text-decoration="underline" textLength="32" x="251.5" y="165.9058">conn</text></a><line style="stroke:#181818;stroke-width:1.0;" x1="219" x2="266" y1="186.9609" y2="186.9609"/><line style="stroke:#181818;stroke-width:1.0;" x1="266" x2="266" y1="186.9609" y2="199.9609"/><line style="stroke:#181818;stroke-width:1.0;" x1="225" x2="266" y1="199.9609" y2="199.9609"/><polygon fill="#181818" points="235,195.9609,225,199.9609,235,203.9609,231,199.9609" style="stroke:#181818;stroke-width:1.0;"/><text fill="#000000" font-family="sans-serif" font-size="13" lengthAdjust="spacing" textLength="51" x="231" y="181.895">connect</text><polygon fill="#181818" points="330,230.0938,340,234.0938,330,238.0938,334,234.0938" style="stroke:#181818;stroke-width:1.0;"/><line style="stroke:#181818;stroke-width:1.0;" x1="224" x2="336" y1="234.0938" y2="234.0938"/><text fill="#000000" font-family="sans-serif" font-size="13" lengthAdjust="spacing" textLength="67" x="231" y="229.0278">go Serve()</text><line style="stroke:#181818;stroke-width:1.0;" x1="357" x2="399" y1="263.2266" y2="263.2266"/><line style="stroke:#181818;stroke-width:1.0;" x1="399" x2="399" y1="263.2266" y2="276.2266"/><line style="stroke:#181818;stroke-width:1.0;" x1="358" x2="399" y1="276.2266" y2="276.2266"/><polygon fill="#181818" points="368,272.2266,358,276.2266,368,280.2266,364,276.2266" style="stroke:#181818;stroke-width:1.0;"/><text fill="#000000" font-family="sans-serif" font-size="13" lengthAdjust="spacing" textLength="69" x="364" y="258.1606">serveConn</text><line style="stroke:#000000;stroke-width:1.0;stroke-dasharray:2.0,2.0;" x1="170.5" x2="445" y1="315.2266" y2="315.2266"/><line style="stroke:#181818;stroke-width:1.0;" x1="219" x2="261" y1="344.3594" y2="344.3594"/><line style="stroke:#181818;stroke-width:1.0;" x1="261" x2="261" y1="344.3594" y2="357.3594"/><line style="stroke:#181818;stroke-width:1.0;" x1="220" x2="261" y1="357.3594" y2="357.3594"/><polygon fill="#181818" points="230,353.3594,220,357.3594,230,361.3594,226,357.3594" style="stroke:#181818;stroke-width:1.0;"/><text fill="#000000" font-family="sans-serif" font-size="13" lengthAdjust="spacing" textLength="114" x="226" y="339.2935">go keepConnect()</text><polygon fill="#181818" points="147,412.4922,137,416.4922,147,420.4922,143,416.4922" style="stroke:#181818;stroke-width:1.0;"/><line style="stroke:#181818;stroke-width:1.0;" x1="141" x2="208" y1="416.4922" y2="416.4922"/><text fill="#000000" font-family="sans-serif" font-size="13" lengthAdjust="spacing" textLength="39" x="153" y="411.4263">return</text><polygon fill="#181818" points="59.5,441.625,49.5,445.625,59.5,449.625,55.5,445.625" style="stroke:#181818;stroke-width:1.0;"/><line style="stroke:#181818;stroke-width:1.0;" x1="53.5" x2="130" y1="445.625" y2="445.625"/><text fill="#000000" font-family="sans-serif" font-size="13" lengthAdjust="spacing" textLength="39" x="65.5" y="440.5591">return</text><!--SRC=[ZP712eCm38RlVOeS5V45TXYCddVPZcC7gK7AIZfgT7lyrUYgE8Nbb2PVqfy_sXC7xnm6A8zmQf0OYW8ESC76jen1GOon7W7jR2B2afWQAyIIPUs9qB3r963b66v0-08J6t2Nulu6CqvlKEVkVSNGH-42DXxacUM97MAcVaVQ8H_afOaQgwYqhnY_7qaBNOjZGhNQvDIU2IBiWVYSRCXo-6_3P7afHdCNIAqkiJZS37q0]--></g></svg>