<?xml version="1.0" encoding="us-ascii" standalone="no"?><svg xmlns="http://www.w3.org/2000/svg" xmlns:xlink="http://www.w3.org/1999/xlink" contentStyleType="text/css" height="1266px" preserveAspectRatio="none" style="width:1250px;height:1266px;background:#FFFFFF;" version="1.1" viewBox="0 0 1250 1266" width="1250px" zoomAndPan="magnify"><defs/><g><rect fill="#F1F1F1" height="36.2969" rx="12.5" ry="12.5" style="stroke:#181818;stroke-width:1.5;" width="82" x="10" y="614.082"/><text fill="#000000" font-family="sans-serif" font-size="14" lengthAdjust="spacing" textLength="62" x="20" y="637.0771">Gateway</text><rect fill="#90EE90" height="36.2969" rx="12.5" ry="12.5" style="stroke:#181818;stroke-width:1.5;" width="147" x="142" y="243.707"/><text fill="#000000" font-family="sans-serif" font-size="14" lengthAdjust="spacing" textLength="127" x="152" y="266.7021">Request Oriented</text><rect fill="#90EE90" height="36.2969" rx="12.5" ry="12.5" style="stroke:#181818;stroke-width:1.5;" width="145" x="339" y="64.4453"/><text fill="#000000" font-family="sans-serif" font-size="14" lengthAdjust="spacing" textLength="125" x="349" y="87.4404">Request Cleaning</text><rect fill="#90EE90" height="52.5938" rx="12.5" ry="12.5" style="stroke:#181818;stroke-width:1.5;" width="317" x="534" y="20"/><text fill="#000000" font-family="sans-serif" font-size="14" lengthAdjust="spacing" textLength="72" x="548" y="42.9951">Validation</text><text fill="#000000" font-family="sans-serif" font-size="14" lengthAdjust="spacing" textLength="265" x="576" y="59.292">For example, valiation based on rules</text><path d="M484,82.5938 L494,82.5938 C509,82.5938 509,46.2969 524,46.2969 L534,46.2969 " fill="none" style="stroke:#181818;stroke-width:1.0;"/><rect fill="#90EE90" height="52.5938" rx="12.5" ry="12.5" style="stroke:#181818;stroke-width:1.5;" width="704" x="534" y="92.5938"/><text fill="#000000" font-family="sans-serif" font-size="14" lengthAdjust="spacing" textLength="99" x="548" y="115.5889">Normalisation</text><text fill="#000000" font-family="sans-serif" font-size="14" lengthAdjust="spacing" textLength="652" x="576" y="131.8857">Normalize the request, for example, add necessary into to support metrics, tracing, or logs</text><path d="M484,82.5938 L494,82.5938 C509,82.5938 509,118.8906 524,118.8906 L534,118.8906 " fill="none" style="stroke:#181818;stroke-width:1.0;"/><path d="M289,261.8555 L299,261.8555 C314,261.8555 314,82.5938 329,82.5938 L339,82.5938 " fill="none" style="stroke:#181818;stroke-width:1.0;"/><rect fill="#90EE90" height="52.5938" rx="12.5" ry="12.5" style="stroke:#181818;stroke-width:1.5;" width="453" x="339" y="165.1875"/><text fill="#000000" font-family="sans-serif" font-size="14" lengthAdjust="spacing" textLength="225" x="353" y="188.1826">Authentication &amp; Authorization</text><text fill="#000000" font-family="sans-serif" font-size="14" lengthAdjust="spacing" textLength="409" x="373" y="204.4795">Interated with different kinds of Authentication Services</text><path d="M289,261.8555 L299,261.8555 C314,261.8555 314,191.4844 329,191.4844 L339,191.4844 " fill="none" style="stroke:#181818;stroke-width:1.0;"/><rect fill="#90EE90" height="36.2969" rx="12.5" ry="12.5" style="stroke:#181818;stroke-width:1.5;" width="162" x="339" y="282.2266"/><text fill="#000000" font-family="sans-serif" font-size="14" lengthAdjust="spacing" textLength="142" x="349" y="305.2217">Request Forwarding</text><rect fill="#90EE90" height="52.5938" rx="12.5" ry="12.5" style="stroke:#181818;stroke-width:1.5;" width="250" x="551" y="237.7813"/><text fill="#000000" font-family="sans-serif" font-size="14" lengthAdjust="spacing" textLength="56" x="565" y="260.7764">Routing</text><text fill="#000000" font-family="sans-serif" font-size="14" lengthAdjust="spacing" textLength="198" x="593" y="277.0732">Routing rubles configurable</text><path d="M501,300.375 L511,300.375 C526,300.375 526,264.0781 541,264.0781 L551,264.0781 " fill="none" style="stroke:#181818;stroke-width:1.0;"/><rect fill="#90EE90" height="52.5938" rx="12.5" ry="12.5" style="stroke:#181818;stroke-width:1.5;" width="265" x="551" y="310.375"/><text fill="#000000" font-family="sans-serif" font-size="14" lengthAdjust="spacing" textLength="241" x="565" y="333.3701">Request Conversion. For example</text><text fill="#000000" font-family="sans-serif" font-size="14" lengthAdjust="spacing" textLength="191" x="593" y="349.667">http &lt;-&gt; internal protocol</text><path d="M501,300.375 L511,300.375 C526,300.375 526,336.6719 541,336.6719 L551,336.6719 " fill="none" style="stroke:#181818;stroke-width:1.0;"/><path d="M289,261.8555 L299,261.8555 C314,261.8555 314,300.375 329,300.375 L339,300.375 " fill="none" style="stroke:#181818;stroke-width:1.0;"/><rect fill="#90EE90" height="36.2969" rx="12.5" ry="12.5" style="stroke:#181818;stroke-width:1.5;" width="172" x="339" y="354.8203"/><text fill="#000000" font-family="sans-serif" font-size="14" lengthAdjust="spacing" textLength="152" x="349" y="377.8154">Session Management</text><path d="M289,261.8555 L299,261.8555 C314,261.8555 314,372.9688 329,372.9688 L339,372.9688 " fill="none" style="stroke:#181818;stroke-width:1.0;"/><rect fill="#90EE90" height="36.2969" rx="12.5" ry="12.5" style="stroke:#181818;stroke-width:1.5;" width="176" x="339" y="411.1172"/><text fill="#000000" font-family="sans-serif" font-size="14" lengthAdjust="spacing" textLength="152" x="349" y="434.1123">Session Management</text><path d="M289,261.8555 L299,261.8555 C314,261.8555 314,429.2656 329,429.2656 L339,429.2656 " fill="none" style="stroke:#181818;stroke-width:1.0;"/><rect fill="#90EE90" height="36.2969" rx="12.5" ry="12.5" style="stroke:#181818;stroke-width:1.5;" width="172" x="339" y="467.4141"/><text fill="#000000" font-family="sans-serif" font-size="14" lengthAdjust="spacing" textLength="148" x="349" y="490.4092">Cookie Management</text><path d="M289,261.8555 L299,261.8555 C314,261.8555 314,485.5625 329,485.5625 L339,485.5625 " fill="none" style="stroke:#181818;stroke-width:1.0;"/><path d="M92,632.2305 L102,632.2305 C117,632.2305 117,261.8555 132,261.8555 L142,261.8555 " fill="none" style="stroke:#181818;stroke-width:1.0;"/><rect fill="#ADD8E6" height="36.2969" rx="12.5" ry="12.5" style="stroke:#181818;stroke-width:1.5;" width="135" x="142" y="644.4531"/><text fill="#000000" font-family="sans-serif" font-size="14" lengthAdjust="spacing" textLength="115" x="152" y="667.4482">Traffic Oriented</text><rect fill="#ADD8E6" height="36.2969" rx="12.5" ry="12.5" style="stroke:#181818;stroke-width:1.5;" width="147" x="327" y="523.7109"/><text fill="#000000" font-family="sans-serif" font-size="14" lengthAdjust="spacing" textLength="127" x="337" y="546.7061">Service Discovery</text><path d="M277,662.6016 L287,662.6016 C302,662.6016 302,541.8594 317,541.8594 L327,541.8594 " fill="none" style="stroke:#181818;stroke-width:1.0;"/><rect fill="#ADD8E6" height="36.2969" rx="12.5" ry="12.5" style="stroke:#181818;stroke-width:1.5;" width="95" x="327" y="580.0078"/><text fill="#000000" font-family="sans-serif" font-size="14" lengthAdjust="spacing" textLength="75" x="337" y="603.0029">Rate Limit</text><path d="M277,662.6016 L287,662.6016 C302,662.6016 302,598.1563 317,598.1563 L327,598.1563 " fill="none" style="stroke:#181818;stroke-width:1.0;"/><rect fill="#ADD8E6" height="36.2969" rx="12.5" ry="12.5" style="stroke:#181818;stroke-width:1.5;" width="128" x="327" y="636.3047"/><text fill="#000000" font-family="sans-serif" font-size="14" lengthAdjust="spacing" textLength="108" x="337" y="659.2998">Circuit Breaker</text><path d="M277,662.6016 L287,662.6016 C302,662.6016 302,654.4531 317,654.4531 L327,654.4531 " fill="none" style="stroke:#181818;stroke-width:1.0;"/><rect fill="#ADD8E6" height="52.5938" rx="12.5" ry="12.5" style="stroke:#181818;stroke-width:1.5;" width="270" x="327" y="692.6016"/><text fill="#000000" font-family="sans-serif" font-size="14" lengthAdjust="spacing" textLength="85" x="341" y="715.5967">Traffic Split</text><text fill="#000000" font-family="sans-serif" font-size="14" lengthAdjust="spacing" textLength="226" x="361" y="731.8936">* For exmaple, Cross IDC for DR</text><path d="M277,662.6016 L287,662.6016 C302,662.6016 302,718.8984 317,718.8984 L327,718.8984 " fill="none" style="stroke:#181818;stroke-width:1.0;"/><rect fill="#ADD8E6" height="36.2969" rx="12.5" ry="12.5" style="stroke:#181818;stroke-width:1.5;" width="127" x="327" y="765.1953"/><text fill="#000000" font-family="sans-serif" font-size="14" lengthAdjust="spacing" textLength="107" x="337" y="788.1904">Load Balancing</text><path d="M277,662.6016 L287,662.6016 C302,662.6016 302,783.3438 317,783.3438 L327,783.3438 " fill="none" style="stroke:#181818;stroke-width:1.0;"/><path d="M92,632.2305 L102,632.2305 C117,632.2305 117,662.6016 132,662.6016 L142,662.6016 " fill="none" style="stroke:#181818;stroke-width:1.0;"/><rect fill="#FFA500" height="36.2969" rx="12.5" ry="12.5" style="stroke:#181818;stroke-width:1.5;" width="149" x="142" y="849.6406"/><text fill="#000000" font-family="sans-serif" font-size="14" lengthAdjust="spacing" textLength="129" x="152" y="872.6357">Business Oriented</text><rect fill="#FFA500" height="36.2969" rx="12.5" ry="12.5" style="stroke:#181818;stroke-width:1.5;" width="92" x="341" y="849.6406"/><text fill="#000000" font-family="sans-serif" font-size="14" lengthAdjust="spacing" textLength="72" x="351" y="872.6357">Auti Fraud</text><rect fill="#FFA500" height="36.2969" rx="12.5" ry="12.5" style="stroke:#181818;stroke-width:1.5;" width="107" x="483" y="821.4922"/><text fill="#000000" font-family="sans-serif" font-size="14" lengthAdjust="spacing" textLength="87" x="493" y="844.4873">Auti Crawler</text><path d="M433,867.7891 L443,867.7891 C458,867.7891 458,839.6406 473,839.6406 L483,839.6406 " fill="none" style="stroke:#181818;stroke-width:1.0;"/><rect fill="#FFA500" height="36.2969" rx="12.5" ry="12.5" style="stroke:#181818;stroke-width:1.5;" width="69" x="483" y="877.7891"/><text fill="#000000" font-family="sans-serif" font-size="14" lengthAdjust="spacing" textLength="49" x="493" y="900.7842">Others</text><path d="M433,867.7891 L443,867.7891 C458,867.7891 458,895.9375 473,895.9375 L483,895.9375 " fill="none" style="stroke:#181818;stroke-width:1.0;"/><path d="M291,867.7891 L301,867.7891 C316,867.7891 316,867.7891 331,867.7891 L341,867.7891 " fill="none" style="stroke:#181818;stroke-width:1.0;"/><path d="M92,632.2305 L102,632.2305 C117,632.2305 117,867.7891 132,867.7891 L142,867.7891 " fill="none" style="stroke:#181818;stroke-width:1.0;"/><rect fill="#D3D3D3" height="36.2969" rx="12.5" ry="12.5" style="stroke:#181818;stroke-width:1.5;" width="142" x="142" y="1071.125"/><text fill="#000000" font-family="sans-serif" font-size="14" lengthAdjust="spacing" textLength="122" x="152" y="1094.1201">System Oriented</text><rect fill="#D3D3D3" height="36.2969" rx="12.5" ry="12.5" style="stroke:#181818;stroke-width:1.5;" width="127" x="334" y="934.0859"/><text fill="#000000" font-family="sans-serif" font-size="14" lengthAdjust="spacing" textLength="107" x="344" y="957.0811">Load Balancing</text><path d="M284,1089.2734 L294,1089.2734 C309,1089.2734 309,952.2344 324,952.2344 L334,952.2344 " fill="none" style="stroke:#181818;stroke-width:1.0;"/><rect fill="#D3D3D3" height="36.2969" rx="12.5" ry="12.5" style="stroke:#181818;stroke-width:1.5;" width="79" x="334" y="1018.5313"/><text fill="#000000" font-family="sans-serif" font-size="14" lengthAdjust="spacing" textLength="59" x="344" y="1041.5264">Security</text><rect fill="#D3D3D3" height="36.2969" rx="12.5" ry="12.5" style="stroke:#181818;stroke-width:1.5;" width="127" x="463" y="990.3828"/><text fill="#000000" font-family="sans-serif" font-size="14" lengthAdjust="spacing" textLength="107" x="473" y="1013.3779">Access Control</text><path d="M413,1036.6797 L423,1036.6797 C438,1036.6797 438,1008.5313 453,1008.5313 L463,1008.5313 " fill="none" style="stroke:#181818;stroke-width:1.0;"/><rect fill="#D3D3D3" height="36.2969" rx="12.5" ry="12.5" style="stroke:#181818;stroke-width:1.5;" width="57" x="463" y="1046.6797"/><text fill="#000000" font-family="sans-serif" font-size="14" lengthAdjust="spacing" textLength="37" x="473" y="1069.6748">CSRF</text><path d="M413,1036.6797 L423,1036.6797 C438,1036.6797 438,1064.8281 453,1064.8281 L463,1064.8281 " fill="none" style="stroke:#181818;stroke-width:1.0;"/><path d="M284,1089.2734 L294,1089.2734 C309,1089.2734 309,1036.6797 324,1036.6797 L334,1036.6797 " fill="none" style="stroke:#181818;stroke-width:1.0;"/><rect fill="#D3D3D3" height="85.1875" rx="12.5" ry="12.5" style="stroke:#181818;stroke-width:1.5;" width="267" x="334" y="1102.9766"/><text fill="#000000" font-family="sans-serif" font-size="14" lengthAdjust="spacing" textLength="96" x="348" y="1125.9717">Observability</text><text fill="#000000" font-family="sans-serif" font-size="14" lengthAdjust="spacing" textLength="151" x="440" y="1142.2686">* Monitoring &amp; Alerts</text><text fill="#000000" font-family="sans-serif" font-size="14" lengthAdjust="spacing" textLength="64" x="440" y="1158.5654">* Tracing</text><text fill="#000000" font-family="sans-serif" font-size="14" lengthAdjust="spacing" textLength="37" x="440" y="1174.8623">* Log</text><path d="M284,1089.2734 L294,1089.2734 C309,1089.2734 309,1145.5703 324,1145.5703 L334,1145.5703 " fill="none" style="stroke:#181818;stroke-width:1.0;"/><rect fill="#D3D3D3" height="36.2969" rx="12.5" ry="12.5" style="stroke:#181818;stroke-width:1.5;" width="69" x="334" y="1208.1641"/><text fill="#000000" font-family="sans-serif" font-size="14" lengthAdjust="spacing" textLength="49" x="344" y="1231.1592">Others</text><path d="M284,1089.2734 L294,1089.2734 C309,1089.2734 309,1226.3125 324,1226.3125 L334,1226.3125 " fill="none" style="stroke:#181818;stroke-width:1.0;"/><path d="M92,632.2305 L102,632.2305 C117,632.2305 117,1089.2734 132,1089.2734 L142,1089.2734 " fill="none" style="stroke:#181818;stroke-width:1.0;"/><!--SRC=[ZLJVRzem47ucVyL9awOMqMhjgccYqzGIIjSArWfeNwO-cEGIB18xEzim-jVlJ08BRP26ye1zd-_7Tz_TbR62R2vLd8iY2DfmAookn3e80DhjNnyocSvjIeZg1SRusw6ny40IbSKuQBNQXp1XXa99bJB6W_PHNNWMcOo5bLfndF8tq0JuH-H5XXrOidrZXfam60F_8PUXkJpWxwUcd9-OyitEPtNzYc3d25Jcre6a7ah4CIYCq1X1Qv3AQk3FkABGP257Ip8o7R0a8gwd0_msqobduWEyp-JQSIXbPLIcyd5peKc-rgkzO_g8YOvX9UqSOfaaIFmA5jm80pfvwsQ2j9HHMVz1pfd1bQ3uCEjZxQotRkcfpapjZBc5IAj4feu4dmuHlUklLaiamxcTrZktSpstje1l9zyzeKXAP52GjZhIMMC94wRVrpaIIgIOS-N_Xu8cMAZrGk8UAcZjGBFCuGjCIII9ZFvf6LfrJoMeOXtwqaIQorqteiRSI1ZANDf6SoWfSj92Zr0ia9emtLqwao9ZQCLYksAM9zCBDIHj3Dprmur- - -FBnd13BMBeYKmeBzUgS4r2fMpiEICLarWRuKh3MmJhJiA0XFFJlLN0dZ4aiSguZlVc1vOicJhNjoJMJEFQMCphQwEMTGbvatK3OeAH8sdNthR9UTzy7Va9zhAqfBC3e70o7lYAtphlmiFCSA_5J6PLY3QCj9AM1vVdWuUOAxQcD4pBJL0UXZgzR7Av9MCx3y4LyehThjb7BjG-ZOPGpH2SdPv_ElzyUdOnGolEZvxKGkcLuedC2vdnzf8v7WT7juz3CDeHIpAMXXVJpFdjS1pSYwM0iLCUrmL_EfgEZc5oixs46xMKfDLcikwVHoK8VcWxARJTWBzSdFHOUrxpIF0y2lgO29TPVXfflrIwy3GTd7mDXjnjnvFL1LH1g3a0hTas-Gi0]--></g></svg>